<svg xmlns="http://www.w3.org/2000/svg" width="1200" height="1067" viewBox="0 0 1200 1067" version="1.1">
	<path d="M 425.900 123.991 C 420.428 126.883, 419.160 129.701, 413.873 150.707 C 409.634 167.547, 408.468 170.868, 405.053 175.807 C 402.799 179.069, 400.212 184.624, 398.997 188.816 C 397.584 193.688, 395.770 197.362, 393.564 199.816 C 391.742 201.842, 388.423 207.100, 386.188 211.500 C 383.954 215.900, 380.463 221.277, 378.432 223.449 C 376.400 225.620, 373.500 230.120, 371.987 233.449 C 370.474 236.777, 367.576 241.075, 365.548 243 C 363.520 244.925, 360.234 249.200, 358.247 252.500 C 354.712 258.370, 350.226 263.885, 338.864 276.328 C 335.764 279.722, 332.353 283.956, 331.284 285.736 C 330.214 287.516, 327.502 290.303, 325.257 291.929 C 323.011 293.556, 319.800 296.883, 318.121 299.325 C 316.441 301.766, 313.501 304.687, 311.587 305.816 C 309.674 306.945, 306.955 309.695, 305.546 311.927 C 304.137 314.159, 301.186 317.120, 298.987 318.508 C 296.789 319.896, 293.626 322.914, 291.959 325.216 C 290.292 327.517, 287.232 330.547, 285.159 331.950 C 283.086 333.352, 278.940 336.893, 275.945 339.818 C 261.914 353.523, 259.202 355.926, 255 358.381 C 252.525 359.826, 248.475 362.839, 246 365.076 C 243.525 367.313, 238.575 370.869, 235 372.978 C 231.425 375.087, 227.375 378.024, 226 379.504 C 224.625 380.984, 221.700 383.114, 219.500 384.237 C 217.300 385.361, 213.189 388.354, 210.364 390.890 C 207.364 393.583, 202.238 396.748, 198.039 398.500 C 194.084 400.150, 188.884 403.203, 186.482 405.284 C 183.532 407.841, 179.365 409.986, 173.636 411.899 C 168.973 413.456, 162.414 416.562, 159.061 418.801 C 154.698 421.714, 150.766 423.353, 145.232 424.566 C 133.894 427.051, 112.131 436.252, 108.750 439.991 C 103.780 445.486, 105.049 452.210, 113.342 464.323 C 115.886 468.038, 118.672 473.503, 119.533 476.467 C 120.395 479.431, 123.076 484.865, 125.492 488.542 C 129.422 494.526, 132 501.794, 132 506.889 C 132 510.982, 136.271 524.991, 139.543 531.633 C 142.548 537.731, 143.197 540.342, 144.021 549.633 C 144.550 555.610, 146.982 574.450, 149.424 591.500 C 158.338 653.727, 158.233 718.327, 149.072 807.500 C 147.998 817.950, 146.400 836.625, 145.520 849 C 143.855 872.400, 142.546 881.658, 138.518 898.500 C 137.203 904, 134.970 916.375, 133.555 926 C 132.141 935.625, 130.547 946.453, 130.013 950.063 C 129.480 953.672, 127.508 959.972, 125.631 964.063 C 123.754 968.153, 120.537 977.125, 118.481 984 C 116.186 991.674, 113.852 997.465, 112.435 999 C 102.718 1009.526, 111.125 1020.243, 121.769 1010.898 C 123.626 1009.267, 126.878 1006.839, 128.995 1005.503 C 131.112 1004.166, 134.427 1000.694, 136.360 997.786 C 138.294 994.879, 141.411 991.678, 143.286 990.674 C 145.162 989.670, 148.003 986.780, 149.599 984.252 C 151.194 981.724, 154.214 978.413, 156.309 976.893 C 158.405 975.374, 161.591 972.270, 163.391 969.996 C 165.191 967.722, 167.800 965.104, 169.189 964.180 C 171.978 962.325, 182.737 952.069, 195.606 939 C 200.209 934.325, 205.306 929.150, 206.933 927.500 C 208.559 925.850, 218.015 916.498, 227.945 906.717 C 237.875 896.937, 246 888.559, 246 888.100 C 246 887.641, 247.687 886.134, 249.750 884.751 C 254.911 881.289, 289.356 846.930, 292.640 841.968 L 295.305 837.940 295.619 702.220 C 295.957 556.409, 296.215 548.661, 301.198 535 C 304.751 525.261, 307.828 514.271, 309.497 505.364 C 311.056 497.043, 313.240 491.406, 317 486 C 317.956 484.625, 319.952 479.900, 321.437 475.500 C 322.921 471.100, 325.629 465.250, 327.454 462.500 C 331.953 455.721, 332.731 454.082, 335.125 446.329 C 337.486 438.688, 338.904 436.171, 344.131 430.349 C 346.181 428.067, 348.777 424.397, 349.901 422.194 C 351.025 419.991, 353.194 417.230, 354.722 416.058 C 356.250 414.886, 359.079 411.595, 361.009 408.745 C 362.939 405.896, 366.481 402.246, 368.880 400.635 C 371.278 399.024, 374.140 396.182, 375.239 394.319 C 376.338 392.457, 379.168 389.604, 381.528 387.981 C 383.888 386.357, 386.805 383.433, 388.011 381.483 C 389.216 379.533, 392.069 377.005, 394.351 375.866 C 396.633 374.726, 400.525 371.867, 403 369.513 C 405.475 367.159, 409.750 364.015, 412.500 362.525 C 415.250 361.036, 419.668 358.006, 422.317 355.793 C 424.966 353.579, 430.694 350.289, 435.045 348.481 C 439.397 346.673, 445.633 343.407, 448.904 341.223 C 452.773 338.639, 457.409 336.634, 462.175 335.483 C 466.204 334.510, 473.325 332.013, 478 329.934 C 488.227 325.386, 494.410 323.733, 511.503 320.980 C 518.651 319.828, 527.038 318.237, 530.140 317.444 C 544.399 313.799, 547.153 313.720, 683 313.069 C 789.837 312.557, 818.309 312.155, 821.434 311.114 C 825.324 309.819, 838.619 298.080, 847.100 288.452 C 848.530 286.828, 853.655 281.900, 858.490 277.500 C 863.325 273.100, 868.455 268.150, 869.890 266.500 C 871.326 264.850, 874.272 261.925, 876.437 260 C 878.602 258.075, 888.995 247.950, 899.531 237.500 C 949.387 188.053, 975.320 162.895, 979.586 159.839 C 986.336 155.003, 996.410 142.005, 998.461 135.485 C 1000.606 128.665, 1000.201 125.958, 996.749 124.033 C 994.166 122.594, 993.675 122.666, 988.749 125.204 C 985.862 126.691, 981.015 128.823, 977.979 129.940 C 972.705 131.881, 966.681 135.331, 958.333 141.191 C 955.239 143.363, 951.224 144.483, 937.500 147.004 C 928.150 148.721, 916.750 151.249, 912.167 152.621 C 907.584 153.992, 898.809 155.760, 892.667 156.549 C 886.525 157.337, 878.575 158.418, 875 158.951 C 871.425 159.484, 862.200 160.419, 854.500 161.029 C 846.800 161.639, 834.200 163.499, 826.500 165.163 C 804.914 169.826, 740.132 173.178, 669 173.311 C 609.125 173.423, 563.041 170.663, 547 166.003 C 541.225 164.326, 530.650 162.066, 523.500 160.982 C 510.193 158.964, 501.117 156.472, 478.786 148.701 C 465.550 144.095, 463.792 143.193, 458 138.027 C 456.075 136.310, 452.210 133.841, 449.412 132.540 C 446.614 131.240, 442.199 128.336, 439.601 126.088 C 434.272 121.475, 431.471 121.046, 425.900 123.991 M 1024.500 163.672 C 1019.877 164.689, 1017.231 166.319, 1012.565 171.024 C 1009.851 173.761, 1007.312 176, 1006.923 176 C 1006.534 176, 1002.965 179.860, 998.991 184.579 C 995.018 189.297, 988.838 195.935, 985.258 199.329 C 981.679 202.723, 968.218 215.850, 955.346 228.500 C 942.474 241.150, 927.598 255.550, 922.289 260.500 C 916.980 265.450, 911.030 271.283, 909.068 273.463 C 907.106 275.643, 903.966 278.793, 902.091 280.463 C 900.216 282.133, 897.741 284.586, 896.591 285.912 C 893.444 289.542, 877.431 305.339, 866.597 315.500 C 857.923 323.636, 852.053 330.600, 846.559 339.274 C 844.767 342.104, 844.632 344.110, 844.802 365.420 C 844.903 378.114, 845.052 390.750, 845.134 393.500 C 845.216 396.250, 845.229 445.217, 845.165 502.317 C 845.065 589.535, 844.805 607.681, 843.537 615.817 C 842.706 621.142, 841.093 632.475, 839.951 641 C 837.322 660.634, 835.832 666.617, 832.038 672.784 C 830.221 675.737, 827.959 681.922, 826.431 688.117 C 823.886 698.439, 822.847 700.765, 817.930 707.159 C 816.517 708.996, 814.070 713.794, 812.493 717.819 C 810.682 722.443, 808.229 726.535, 805.833 728.932 C 803.747 731.018, 800.653 735.824, 798.959 739.612 C 797.264 743.401, 794.589 747.850, 793.013 749.500 C 791.438 751.150, 788.278 755.984, 785.992 760.243 C 783.705 764.501, 780.644 768.922, 779.189 770.066 C 777.734 771.211, 774.929 774.477, 772.957 777.324 C 770.985 780.171, 767.558 783.720, 765.341 785.212 C 763.124 786.704, 760.228 789.534, 758.905 791.503 C 757.582 793.471, 754.124 796.453, 751.221 798.131 C 748.317 799.808, 744.717 802.729, 743.221 804.621 C 741.724 806.514, 737.341 809.803, 733.481 811.930 C 729.621 814.057, 724.243 817.632, 721.530 819.873 C 718.818 822.115, 714.631 824.619, 712.227 825.438 C 709.822 826.258, 705.075 828.902, 701.677 831.315 C 697.931 833.975, 692.155 836.799, 687 838.492 C 682.325 840.027, 674.995 843.033, 670.711 845.172 C 665.810 847.620, 659.342 849.798, 653.263 851.049 C 647.950 852.142, 639.530 854.193, 634.552 855.608 C 629.573 857.022, 622.445 859.022, 618.711 860.052 C 605.414 863.720, 591.495 864.056, 456.712 863.959 C 337.262 863.873, 325.489 864.009, 320.915 865.528 C 314.537 867.647, 310.800 871.093, 271.387 911.207 C 265.825 916.868, 252.156 930.275, 241.011 941 C 229.866 951.725, 217.766 963.499, 214.123 967.165 C 210.481 970.831, 206.516 974.319, 205.313 974.916 C 204.111 975.514, 202.172 977.690, 201.005 979.751 C 199.838 981.813, 197.103 984.829, 194.927 986.453 C 192.752 988.076, 189.148 991.568, 186.919 994.212 C 184.689 996.855, 181.537 999.705, 179.913 1000.545 C 178.289 1001.385, 175.616 1003.928, 173.972 1006.197 C 172.328 1008.467, 168.881 1011.713, 166.312 1013.412 C 163.732 1015.118, 160.659 1018.291, 159.448 1020.500 C 158.136 1022.892, 155.579 1025.443, 153.086 1026.847 C 147.282 1030.117, 145.826 1032.717, 146.195 1039.159 C 146.494 1044.396, 146.564 1044.506, 149.792 1044.816 C 151.602 1044.991, 155.202 1044.434, 157.792 1043.579 C 160.381 1042.724, 164.935 1041.567, 167.912 1041.008 C 170.889 1040.448, 174.714 1038.938, 176.412 1037.651 C 181.587 1033.730, 183.597 1033.001, 194.751 1030.999 C 200.663 1029.937, 210.450 1027.957, 216.500 1026.598 C 252.815 1018.441, 271.944 1015, 280.971 1015 C 287.187 1015, 320.805 1010.957, 335.500 1008.441 C 369.385 1002.642, 499.332 1000.174, 553 1004.312 C 578.196 1006.254, 579.040 1006.378, 598 1010.911 C 604.875 1012.555, 615.450 1014.612, 621.500 1015.482 C 627.550 1016.352, 638.350 1018.885, 645.500 1021.110 C 681.659 1032.364, 683.673 1033.124, 691.588 1038.495 C 695.590 1041.211, 702.230 1043.462, 709.418 1044.540 C 716.209 1045.558, 718.956 1042.368, 721.938 1030 C 724.219 1020.542, 726.036 1015.881, 728.575 1012.972 C 729.308 1012.132, 731.763 1006.732, 734.030 1000.972 C 736.297 995.212, 739.476 988.828, 741.095 986.785 C 742.714 984.742, 745.759 979.512, 747.861 975.164 C 749.964 970.816, 753.331 965.288, 755.344 962.879 C 757.357 960.471, 760.290 955.800, 761.862 952.500 C 763.434 949.200, 766.731 944.025, 769.189 941 C 771.647 937.975, 774.813 933.475, 776.225 931 C 777.637 928.525, 780.644 925.012, 782.908 923.193 C 785.172 921.375, 788.137 917.690, 789.497 915.005 C 790.858 912.321, 793.580 908.897, 795.546 907.397 C 797.513 905.897, 799.931 903.093, 800.920 901.165 C 801.909 899.237, 808.069 892.098, 814.609 885.299 C 839.016 859.928, 856.606 842.362, 859.991 839.979 C 861.911 838.627, 864.793 836.027, 866.396 834.202 C 867.999 832.376, 871.378 829.479, 873.905 827.763 C 876.432 826.047, 880.009 822.910, 881.853 820.792 C 883.698 818.673, 886.740 816.300, 888.614 815.517 C 890.488 814.734, 894.379 811.916, 897.261 809.256 C 900.142 806.595, 904.525 803.131, 907 801.558 C 909.475 799.986, 913.525 797.026, 916 794.981 C 918.475 792.937, 922.975 790.017, 926 788.493 C 929.025 786.969, 933.590 783.872, 936.145 781.611 C 938.728 779.325, 943.928 776.251, 947.857 774.687 C 951.883 773.084, 956.985 770.048, 959.712 767.632 C 962.345 765.299, 966.525 762.161, 969 760.660 C 971.475 759.158, 975.411 756.398, 977.747 754.526 C 980.493 752.326, 985.089 750.183, 990.747 748.464 C 995.561 747.002, 1003.550 744.093, 1008.500 741.999 C 1013.450 739.905, 1019.352 737.697, 1021.616 737.093 C 1027.620 735.491, 1031.003 731.708, 1030.988 726.614 C 1030.964 718.238, 1027.295 708.458, 1022.503 704 C 1018.820 700.573, 1018.479 699.798, 1014.967 686.866 C 1013.269 680.615, 1010.367 672.125, 1008.520 668 C 1004.091 658.115, 1002.505 652.208, 999.934 636.033 C 998.757 628.626, 996.486 618.162, 994.886 612.779 C 988.803 592.303, 986.692 555.854, 987.252 481 C 987.796 408.343, 989.877 365.837, 994.016 342.812 C 995.135 336.590, 996.710 327.858, 997.517 323.406 C 998.324 318.954, 999.425 310.854, 999.963 305.406 C 1000.502 299.958, 1001.434 291, 1002.035 285.500 C 1002.637 280, 1003.525 271.363, 1004.009 266.307 C 1004.546 260.706, 1005.865 254.651, 1007.386 250.807 C 1010.671 242.504, 1013.454 231.035, 1015.470 217.500 C 1017.536 203.619, 1019.108 198.748, 1023.519 192.543 C 1027.385 187.106, 1028.296 184.356, 1030.103 172.656 C 1031.552 163.276, 1030.919 162.260, 1024.500 163.672 M 539.417 346.995 C 536.622 347.405, 529.843 349.136, 524.354 350.841 C 518.865 352.547, 511.252 354.639, 507.437 355.490 C 491.138 359.128, 484.118 361.383, 478 364.944 C 474.425 367.024, 469.025 369.525, 466 370.501 C 458.695 372.856, 453.928 375.314, 451.539 377.955 C 450.460 379.148, 445.603 382.177, 440.746 384.686 C 435.444 387.424, 430.923 390.546, 429.436 392.496 C 428.073 394.282, 424.298 397.162, 421.047 398.894 C 417.295 400.894, 414.328 403.350, 412.927 405.619 C 411.712 407.584, 408.599 410.496, 406.008 412.090 C 403.417 413.684, 400.071 416.904, 398.572 419.244 C 397.073 421.585, 394.097 424.722, 391.957 426.216 C 389.766 427.747, 387.002 431.021, 385.627 433.716 C 384.285 436.347, 381.754 439.850, 380.004 441.500 C 376.334 444.959, 374.534 448.135, 371.896 455.803 C 370.747 459.142, 368.311 463.099, 365.655 465.937 C 362.382 469.437, 360.630 472.603, 358.608 478.676 C 356.887 483.842, 354.373 488.746, 351.638 492.268 C 348.110 496.811, 346.869 499.662, 344.563 508.525 C 343.026 514.436, 340.441 522.108, 338.819 525.573 C 332.531 539.010, 329.585 567.020, 330.983 600.089 C 332.211 629.153, 334.072 641.009, 338.975 651 C 340.459 654.025, 342.925 661, 344.455 666.500 C 347.473 677.351, 349.171 681.336, 352.183 684.635 C 353.255 685.809, 355.712 690.968, 357.643 696.099 C 359.737 701.662, 362.480 706.895, 364.438 709.063 C 366.244 711.062, 369.187 715.448, 370.979 718.809 C 372.770 722.170, 376.552 727.525, 379.384 730.710 C 382.215 733.894, 385.842 738.439, 387.443 740.810 C 389.045 743.180, 391.269 745.609, 392.386 746.207 C 395.309 747.771, 397.821 750.898, 399.965 755.642 C 400.994 757.920, 403.458 761.070, 405.439 762.642 C 407.420 764.214, 410.159 767.181, 411.525 769.235 C 412.994 771.445, 416.043 774.001, 418.987 775.493 C 421.724 776.880, 424.753 779.249, 425.718 780.758 C 428.065 784.426, 429.448 785.504, 436.500 789.165 C 439.800 790.877, 444.357 793.800, 446.626 795.658 C 448.896 797.517, 454.685 800.582, 459.492 802.469 C 464.299 804.356, 468.984 806.581, 469.903 807.412 C 472.136 809.433, 479.805 812.769, 487.350 815.002 C 490.733 816.003, 498.675 818.628, 505 820.835 C 539.053 832.716, 603.184 832.993, 633.383 821.388 C 638.269 819.511, 645.725 817.092, 649.950 816.013 C 659.186 813.655, 663.467 811.928, 669.384 808.176 C 671.839 806.619, 677.667 803.868, 682.336 802.064 C 687.937 799.898, 692.175 797.484, 694.795 794.966 C 696.979 792.867, 700.695 790.573, 703.052 789.866 C 705.576 789.110, 709.630 786.503, 712.918 783.521 C 715.988 780.737, 720.750 776.717, 723.500 774.587 C 729.603 769.859, 732.080 767.119, 736.682 760 C 740.349 754.328, 746.665 746.890, 755.667 737.641 C 758.509 734.721, 761.503 730.732, 762.320 728.777 C 763.137 726.822, 766.099 722.916, 768.903 720.098 C 771.706 717.280, 774.006 714.417, 774.013 713.737 C 774.034 711.684, 779.569 701.419, 782.869 697.313 C 784.570 695.197, 787.039 690.297, 788.356 686.424 C 789.673 682.552, 792.806 675.810, 795.319 671.442 C 800.178 662.995, 801.191 659.242, 804.969 635.693 C 806.098 628.654, 807.917 619.665, 809.011 615.717 C 811.609 606.344, 811.876 572.412, 809.434 562 C 807.346 553.097, 802.402 528.085, 800.979 519.224 C 800.039 513.370, 799.063 510.954, 795.982 506.854 C 793.319 503.309, 791.495 499.285, 789.989 493.629 C 787.792 485.378, 784.449 478.448, 781.476 475.980 C 780.574 475.232, 778.470 471.893, 776.800 468.560 C 775.131 465.227, 771.792 459.719, 769.382 456.321 C 766.972 452.922, 765 449.856, 765 449.507 C 765 447.276, 759.554 437.683, 755.906 433.490 C 746.962 423.208, 721.729 399.524, 717.062 397.031 C 715.721 396.314, 712.567 393.804, 710.052 391.452 C 707.538 389.101, 703.460 386.396, 700.991 385.442 C 698.521 384.488, 694.475 382.042, 692 380.007 C 686.488 375.475, 682.698 373.473, 675.224 371.147 C 672.059 370.162, 667.057 367.697, 664.110 365.670 C 658.547 361.843, 656.464 361.131, 636.500 356.236 C 629.900 354.617, 620.763 352.119, 616.196 350.683 C 611.070 349.072, 603.415 347.680, 596.196 347.047 C 583.027 345.891, 547.163 345.859, 539.417 346.995 M 548.663 381.091 C 543.253 381.537, 537.403 382.367, 535.663 382.934 C 533.923 383.501, 528.165 384.852, 522.867 385.936 C 503.242 389.951, 495.351 392.272, 488 396.195 C 483.875 398.396, 477.750 401.234, 474.389 402.501 C 471.028 403.769, 465.628 406.796, 462.389 409.228 C 459.150 411.660, 453.653 415.357, 450.173 417.444 C 446.693 419.531, 443.603 421.872, 443.306 422.646 C 443.009 423.420, 440.681 425.259, 438.133 426.732 C 430.292 431.266, 417.330 445.042, 414.970 451.351 C 413.850 454.345, 411.261 458.753, 409.217 461.147 C 407.172 463.541, 403.958 467.750, 402.073 470.500 C 400.188 473.250, 396.789 477.525, 394.519 480 C 392.055 482.686, 389.684 486.663, 388.637 489.868 C 387.672 492.820, 385.136 498.001, 383.001 501.381 C 380.335 505.603, 378.143 511.122, 375.999 519.013 C 374.283 525.331, 371.364 533.875, 369.512 538 C 364.882 548.315, 363.488 560.468, 363.548 590 C 363.600 615.898, 364.928 626.510, 369.520 637.741 C 370.924 641.173, 373.454 649.273, 375.144 655.741 C 378.413 668.258, 379.564 671.035, 384.042 677.216 C 385.599 679.366, 388.055 684.220, 389.501 688.003 C 390.947 691.786, 393.456 696.595, 395.076 698.691 C 396.697 700.786, 399.782 705.102, 401.932 708.282 C 404.082 711.462, 408.014 716.187, 410.671 718.782 C 413.327 721.377, 416.250 724.933, 417.166 726.684 C 418.082 728.436, 420.699 731.047, 422.981 732.488 C 425.264 733.929, 428.052 736.669, 429.179 738.578 C 430.305 740.487, 433.169 743.187, 435.544 744.578 C 438.006 746.021, 441.171 749.150, 442.909 751.858 C 444.733 754.701, 447.671 757.555, 450.228 758.968 C 452.578 760.267, 456.242 762.878, 458.371 764.771 C 460.500 766.665, 465.675 769.822, 469.871 771.789 C 474.067 773.755, 479.378 776.630, 481.674 778.178 C 486.959 781.741, 489.408 782.693, 500.500 785.496 C 505.450 786.747, 514.450 789.433, 520.500 791.465 C 530.552 794.840, 533.223 795.287, 551.500 796.647 C 582.887 798.982, 604.557 797.236, 622.247 790.944 C 628.157 788.842, 636.899 786.390, 641.672 785.496 C 651.132 783.723, 654.111 782.479, 661.147 777.361 C 663.702 775.502, 668.318 772.865, 671.404 771.500 C 678.546 768.342, 685.565 763.218, 694.008 755 C 697.680 751.425, 707.129 742.425, 715.005 735 C 722.892 727.565, 730.902 719.029, 732.835 716 C 734.766 712.975, 738.259 708.803, 740.599 706.730 C 743.420 704.229, 745.385 701.356, 746.434 698.197 C 747.304 695.578, 750.268 690.346, 753.021 686.570 C 756.646 681.598, 758.741 677.334, 760.619 671.103 C 762.046 666.371, 764.484 660.407, 766.037 657.848 C 770.504 650.489, 773.521 636.301, 777.211 605.297 C 779.150 589.001, 779.255 586.001, 778.137 578.714 C 777.444 574.196, 776.236 565.550, 775.453 559.500 C 772.016 532.961, 768.879 521.062, 763.060 512.500 C 761.939 510.850, 760.065 506.284, 758.895 502.352 C 757.414 497.373, 755.450 493.596, 752.419 489.902 C 750.027 486.985, 747.105 482.102, 745.927 479.049 C 744.553 475.493, 742.231 472.063, 739.461 469.500 C 737.083 467.300, 733.746 462.691, 732.045 459.257 C 730.343 455.824, 727.547 451.415, 725.830 449.459 C 724.113 447.504, 720.637 443.138, 718.104 439.757 C 715 435.612, 710.894 431.857, 705.500 428.230 C 701.100 425.271, 696.150 421.582, 694.500 420.033 C 692.850 418.483, 689.475 416.213, 687 414.987 C 684.525 413.762, 680.557 411.183, 678.183 409.258 C 675.809 407.332, 670.101 404.279, 665.499 402.472 C 660.898 400.665, 655.072 397.770, 652.554 396.037 C 649.564 393.980, 645.465 392.380, 640.738 391.424 C 633.470 389.955, 615.043 385.566, 600.932 381.943 C 592.680 379.824, 568.754 379.434, 548.663 381.091 M 556.269 404.992 C 552.842 405.477, 547.442 406.529, 544.269 407.329 C 541.096 408.128, 533.775 409.545, 528 410.476 C 513.682 412.786, 508.712 414.346, 501.052 418.937 C 497.448 421.097, 491.533 423.811, 487.906 424.968 C 483.694 426.312, 479.900 428.376, 477.406 430.678 C 475.258 432.661, 471.363 435.609, 468.750 437.228 C 466.137 438.847, 464 440.561, 464 441.038 C 464 441.514, 460.794 445.188, 456.875 449.202 C 452.957 453.216, 448.131 458.188, 446.152 460.250 C 444.173 462.313, 442.209 464, 441.787 464 C 441.365 464, 439.432 466.363, 437.491 469.250 C 435.549 472.137, 432.402 475.625, 430.498 477 C 428.415 478.504, 425.972 481.767, 424.371 485.187 C 422.906 488.315, 420.170 492.099, 418.293 493.596 C 414.545 496.584, 411.812 501.272, 410.091 507.663 C 409.476 509.947, 407.315 514.219, 405.289 517.158 C 400.878 523.557, 399.857 526.356, 397.035 539.800 C 395.846 545.464, 393.682 553.114, 392.227 556.800 C 389.698 563.205, 389.566 564.469, 389.246 585.500 C 388.939 605.654, 389.090 608.087, 391.041 614.500 C 392.212 618.350, 394.188 626, 395.431 631.500 C 399.020 647.373, 400.640 652.007, 405.398 660 C 407.854 664.125, 410.822 670.077, 411.994 673.226 C 413.409 677.026, 415.410 680.053, 417.943 682.226 C 420.258 684.211, 422.921 688.058, 424.708 692 C 426.506 695.966, 429.184 699.828, 431.577 701.905 C 433.735 703.778, 437.984 708.163, 441.020 711.650 C 444.055 715.136, 449.005 719.802, 452.020 722.017 C 455.034 724.233, 459.300 727.816, 461.500 729.981 C 463.700 732.146, 468.073 735.048, 471.217 736.431 C 474.361 737.814, 478.636 740.468, 480.717 742.328 C 485.461 746.571, 487.350 747.555, 495.675 750.127 C 499.808 751.403, 504.121 753.646, 506.937 755.983 C 518.072 765.226, 557.429 773.223, 580.892 771.010 C 604.129 768.819, 621.956 763.849, 633.039 756.474 C 637.865 753.262, 643.001 750.738, 646.222 749.994 C 652.130 748.630, 658.513 745.301, 661.458 742.047 C 662.533 740.859, 666.920 738.062, 671.206 735.832 C 675.493 733.602, 679 731.463, 679 731.078 C 679 729.655, 685.515 723.778, 689.145 721.926 C 691.207 720.874, 694.233 718.069, 695.868 715.692 C 697.503 713.316, 700.670 710.161, 702.906 708.681 C 705.370 707.050, 707.926 704.122, 709.396 701.245 C 710.730 698.635, 713.471 694.925, 715.488 693 C 717.504 691.075, 720.768 686.575, 722.741 683 C 724.713 679.425, 727.759 674.700, 729.508 672.500 C 733.848 667.042, 734.452 665.732, 737.011 656.214 C 738.236 651.656, 740.353 646.286, 741.714 644.280 C 747.021 636.459, 748.690 628.846, 750.104 606 C 752.228 571.701, 748.513 539.335, 741.496 531 C 740.121 529.367, 736.710 520.045, 734.981 513.198 C 734.287 510.449, 732.518 507.559, 730.082 505.195 C 727.984 503.160, 725.222 499.021, 723.943 495.997 C 720.690 488.310, 717.650 483.656, 714.556 481.628 C 713.099 480.674, 710.353 477.463, 708.453 474.494 C 706.554 471.525, 702.976 467.703, 700.501 466.001 C 698.027 464.299, 695.357 461.657, 694.568 460.131 C 693.779 458.605, 690.660 455.244, 687.638 452.662 C 684.616 450.080, 681.200 446.442, 680.047 444.576 C 677.401 440.294, 663.832 429.989, 656.261 426.512 C 653.093 425.056, 646 421.657, 640.500 418.959 C 629.900 413.757, 623.833 411.797, 612.500 409.912 C 608.650 409.272, 602.158 407.903, 598.072 406.870 C 589.431 404.684, 565.903 403.627, 556.269 404.992 M 559.500 431.477 C 558.950 431.733, 554.450 432.338, 549.500 432.822 C 542.950 433.462, 538.513 434.574, 533.201 436.908 C 529.187 438.672, 522.496 440.767, 518.332 441.563 C 508.302 443.483, 502.855 446.012, 499.621 450.253 C 498.156 452.173, 494.364 455.126, 491.194 456.816 C 488.024 458.505, 484.215 461.252, 482.729 462.920 C 481.242 464.588, 477.841 467.061, 475.169 468.414 C 472.497 469.768, 469.564 472.016, 468.651 473.410 C 467.738 474.803, 464.586 477.720, 461.648 479.891 C 458.709 482.062, 455.543 485.443, 454.613 487.404 C 453.682 489.365, 451.073 492.439, 448.815 494.235 C 446.371 496.178, 443.801 499.524, 442.465 502.500 C 441.230 505.250, 438.452 509.300, 436.290 511.500 C 432.952 514.897, 432.020 516.857, 430.115 524.500 C 428.789 529.819, 426.093 536.772, 423.523 541.500 C 417.253 553.033, 416.555 557.868, 416.589 589.500 C 416.620 619.498, 417.383 624.804, 422.918 633.532 C 426.257 638.797, 428.276 644.456, 430.043 653.500 C 431.033 658.569, 431.888 660.132, 435.555 663.572 C 438.409 666.250, 440.622 669.588, 442.021 673.327 C 443.442 677.125, 445.280 679.874, 447.558 681.612 C 449.434 683.043, 451.882 685.691, 452.998 687.496 C 455.893 692.181, 468.211 703.927, 473.955 707.482 C 476.638 709.142, 479.773 711.699, 480.922 713.165 C 482.162 714.747, 485.816 716.901, 489.915 718.468 C 493.713 719.919, 499.439 722.941, 502.641 725.183 C 507.288 728.439, 510.581 729.758, 518.981 731.729 C 524.766 733.087, 533.905 735.521, 539.288 737.140 C 561.192 743.724, 578.260 743.199, 610.728 734.942 C 630.972 729.794, 631.408 729.638, 638.260 725.128 C 640.592 723.593, 644.075 721.735, 646 720.999 C 653.933 717.967, 659.750 714.557, 664 710.445 C 666.475 708.051, 670.167 705.399, 672.205 704.552 C 674.693 703.517, 676.754 701.570, 678.483 698.620 C 679.898 696.205, 682.837 693.050, 685.013 691.610 C 687.442 690.003, 689.937 687.085, 691.471 684.057 C 692.846 681.344, 695.545 677.923, 697.470 676.455 C 700.741 673.960, 708 661.543, 708 658.442 C 708 657.733, 709.579 655.085, 711.508 652.557 C 715.553 647.258, 718.046 638.944, 720.521 622.500 C 721.431 616.450, 723.033 607.900, 724.081 603.500 C 726.543 593.160, 726.524 582.377, 724.026 572.842 C 722.941 568.698, 721.361 560.850, 720.515 555.403 C 717.381 535.217, 715.906 530.515, 710.486 523.413 C 708.665 521.028, 706.857 517.597, 706.467 515.789 C 705.396 510.813, 703.183 506.981, 698.416 501.844 C 696.039 499.282, 692.540 494.756, 690.639 491.786 C 688.739 488.815, 685.569 485.285, 683.595 483.942 C 681.620 482.599, 678.679 479.662, 677.059 477.415 C 675.306 474.984, 671.386 471.743, 667.383 469.415 C 663.682 467.262, 658.369 463.448, 655.577 460.940 C 652.785 458.432, 648.700 455.324, 646.500 454.034 C 644.300 452.745, 640.925 450.210, 639 448.402 C 636.432 445.989, 633.370 444.544, 627.500 442.975 C 623.100 441.799, 613.650 438.865, 606.500 436.455 C 593.727 432.149, 593.212 432.064, 577 431.542 C 567.925 431.250, 560.050 431.220, 559.500 431.477 M 550.500 468.555 C 544.450 469.277, 539.403 469.898, 539.285 469.934 C 539.166 469.970, 537.529 471.353, 535.645 473.007 C 533.242 475.116, 529.800 476.616, 524.106 478.033 C 512.612 480.894, 510.875 481.696, 507.619 485.646 C 506.028 487.576, 502.273 490.317, 499.276 491.736 C 495.600 493.476, 493.056 495.536, 491.463 498.058 C 490.164 500.116, 487.166 503.091, 484.801 504.670 C 482.330 506.318, 479.475 509.446, 478.090 512.020 C 476.765 514.484, 473.840 517.866, 471.590 519.535 C 468.316 521.964, 467.101 523.798, 465.500 528.729 C 464.400 532.117, 461.925 537.052, 460 539.695 C 454.965 546.608, 454.881 546.769, 453.388 552.388 C 450.492 563.284, 449.762 582.158, 451.411 603.500 C 453.244 627.235, 453.775 629.402, 459.371 635.958 C 462.306 639.396, 464.202 642.904, 465.344 647.013 C 466.726 651.985, 467.693 653.506, 470.904 655.766 C 473.041 657.270, 476.192 660.829, 477.907 663.676 C 479.621 666.522, 482.533 669.784, 484.378 670.925 C 486.223 672.065, 488.896 674.755, 490.317 676.903 C 492.064 679.542, 494.695 681.657, 498.437 683.427 C 502.047 685.135, 504.504 687.075, 505.503 689.006 C 507.323 692.526, 510.074 694.058, 519.709 696.919 C 523.674 698.097, 528.246 700.178, 529.870 701.544 C 534.211 705.197, 539.258 706.997, 545.218 707.020 C 548.123 707.031, 554.315 707.660, 558.977 708.418 C 566.191 709.590, 569.396 709.589, 580.477 708.406 C 607.958 705.472, 607.665 705.535, 611.964 701.651 C 614.122 699.702, 617.600 697.664, 619.693 697.121 C 633.709 693.489, 635.048 692.833, 638.386 687.961 C 639.783 685.922, 643.169 683.263, 646.629 681.489 C 650.702 679.401, 653.008 677.465, 654.157 675.170 C 656.425 670.644, 658.599 668.409, 662.172 666.929 C 664.478 665.973, 666.003 663.989, 668.580 658.588 C 670.440 654.689, 673.902 649.235, 676.273 646.467 C 679.512 642.687, 680.914 639.950, 681.911 635.467 C 683.187 629.725, 684.798 626.098, 689.069 619.356 C 692.308 614.242, 693.964 603.780, 693.983 588.299 C 694.003 571.359, 692.950 565.583, 688.307 557.170 C 686.385 553.689, 683.710 546.714, 682.363 541.670 C 680.268 533.832, 679.302 531.878, 675.713 528.214 C 673.403 525.857, 669.935 520.939, 668.006 517.286 C 665.600 512.727, 663.137 509.681, 660.152 507.572 C 657.761 505.882, 654.611 502.700, 653.152 500.500 C 651.211 497.572, 648.575 495.545, 643.316 492.938 C 639.365 490.979, 634.123 487.524, 631.667 485.261 C 628.339 482.193, 625.330 480.590, 619.851 478.967 C 615.808 477.770, 609.734 475.249, 606.353 473.366 C 595.182 467.145, 576.082 465.499, 550.500 468.555 M 560.330 489.985 C 557.487 490.996, 552.087 492.137, 548.330 492.520 C 533.602 494.023, 524.991 496.722, 520 501.400 C 518.075 503.204, 514.250 505.934, 511.500 507.467 C 505.512 510.805, 499.172 516.685, 494.213 523.500 C 492.212 526.250, 488.888 530.170, 486.827 532.211 C 484.315 534.697, 482.555 537.724, 481.490 541.386 C 480.616 544.391, 478.806 548.346, 477.467 550.175 C 469.475 561.089, 468.871 563.772, 468.776 588.777 C 468.691 611.447, 469.746 617.285, 475.019 623.304 C 477.041 625.612, 479.500 629.975, 480.485 633 C 483.254 641.512, 485.654 645.628, 489.782 648.945 C 491.869 650.622, 494.874 654.216, 496.460 656.932 C 498.480 660.390, 500.761 662.641, 504.074 664.444 C 506.675 665.860, 510.985 668.973, 513.652 671.363 C 519.580 676.677, 522.895 678.417, 529.926 679.906 C 532.910 680.537, 536.842 681.975, 538.663 683.101 C 540.484 684.226, 544.982 685.573, 548.659 686.094 C 552.336 686.615, 555.829 687.433, 556.422 687.912 C 557.015 688.391, 560.157 689.328, 563.405 689.995 C 572.322 691.824, 582.910 690.534, 592 686.510 C 596.125 684.684, 603.100 682.234, 607.500 681.065 C 619.586 677.855, 622.476 676.472, 627.416 671.531 C 629.908 669.039, 632.654 667, 633.517 667 C 636.418 667, 651.938 650.539, 653.579 645.721 C 654.467 643.115, 656.862 639.623, 659.456 637.150 C 663.329 633.459, 664.032 632.084, 665.546 625.239 C 666.487 620.982, 668.113 614.350, 669.160 610.500 C 672.781 597.177, 672.580 582.570, 668.539 565.500 C 667.757 562.200, 666.345 555.675, 665.401 551 C 663.836 543.255, 663.305 542.141, 659.428 538.460 C 657.088 536.238, 653.945 531.827, 652.445 528.658 C 650.351 524.237, 648.819 522.438, 645.858 520.928 C 643.736 519.845, 640.870 517.171, 639.491 514.985 C 637.631 512.039, 635.369 510.268, 630.741 508.132 C 627.309 506.548, 622.830 503.688, 620.789 501.777 C 615.736 497.045, 611.094 495.505, 593 492.558 C 584.475 491.169, 575.928 489.576, 574.007 489.017 C 569.236 487.628, 566.389 487.830, 560.330 489.985 M 562.500 529.656 C 549.932 530.661, 539.764 534.581, 532.810 541.102 C 530.230 543.521, 526.577 546.850, 524.692 548.500 C 522.344 550.555, 519.297 555.670, 515.021 564.733 L 508.778 577.965 509.156 588.733 L 509.535 599.500 515.549 612.148 C 520.750 623.087, 522.234 625.327, 526.532 628.725 C 529.264 630.885, 532.723 634.257, 534.219 636.219 C 536.640 639.395, 538.471 640.287, 550.991 644.392 C 568.231 650.045, 572.711 650.243, 586.627 645.965 C 602.889 640.967, 606.854 638.200, 619.143 623.271 C 626.291 614.588, 628.426 609.983, 630.046 599.754 C 632.703 582.978, 629.735 566.659, 622.436 557.924 C 620.549 555.664, 618.216 552.458, 617.252 550.799 C 616.288 549.139, 611.450 544.661, 606.500 540.848 C 596.793 533.371, 592.626 531.670, 580 530.034 C 572.601 529.075, 570.369 529.027, 562.500 529.656" stroke="none" fill="#eae5e1" fill-rule="evenodd"/>
</svg>